<mxfile host="app.diagrams.net" modified="2023-11-07T23:51:56.834Z" agent="Mozilla/5.0 (Windows NT 10.0; Win64; x64) AppleWebKit/537.36 (KHTML, like Gecko) Chrome/119.0.0.0 Safari/537.36" etag="jZTvqf13WKZWSlT7aSaN" version="22.0.8" type="device">
  <diagram name="1 oldal" id="1jECO1GyWG0q6AtXHdzy">
    <mxGraphModel dx="1000" dy="547" grid="1" gridSize="10" guides="1" tooltips="1" connect="1" arrows="1" fold="1" page="1" pageScale="1" pageWidth="2336" pageHeight="1654" math="0" shadow="0">
      <root>
        <mxCell id="0" />
        <mxCell id="1" parent="0" />
        <mxCell id="NnnLSMgLc5xRbMuPw9LD-35" value="" style="ellipse;whiteSpace=wrap;html=1;" vertex="1" parent="1">
          <mxGeometry x="105" y="435" width="70" height="50" as="geometry" />
        </mxCell>
        <mxCell id="NnnLSMgLc5xRbMuPw9LD-34" value="" style="ellipse;whiteSpace=wrap;html=1;" vertex="1" parent="1">
          <mxGeometry x="395" y="435" width="70" height="50" as="geometry" />
        </mxCell>
        <mxCell id="rUUEe8QkE9hzoTxWt3CS-42" value="WIQPM2_fesztivál" style="ellipse;whiteSpace=wrap;html=1;" parent="1" vertex="1">
          <mxGeometry x="1170" y="70" width="150" height="90" as="geometry" />
        </mxCell>
        <mxCell id="rUUEe8QkE9hzoTxWt3CS-43" value="Fesztivál" style="ellipse;whiteSpace=wrap;html=1;" parent="1" vertex="1">
          <mxGeometry x="1250" y="270" width="150" height="90" as="geometry" />
        </mxCell>
        <mxCell id="rUUEe8QkE9hzoTxWt3CS-44" value="Résztvevő" style="ellipse;whiteSpace=wrap;html=1;" parent="1" vertex="1">
          <mxGeometry x="1550" y="270" width="150" height="90" as="geometry" />
        </mxCell>
        <mxCell id="rUUEe8QkE9hzoTxWt3CS-45" value="Fellépő" style="ellipse;whiteSpace=wrap;html=1;" parent="1" vertex="1">
          <mxGeometry x="660" y="280" width="150" height="90" as="geometry" />
        </mxCell>
        <mxCell id="rUUEe8QkE9hzoTxWt3CS-46" value="Tulajdonos" style="ellipse;whiteSpace=wrap;html=1;" parent="1" vertex="1">
          <mxGeometry x="940" y="270" width="150" height="90" as="geometry" />
        </mxCell>
        <mxCell id="rUUEe8QkE9hzoTxWt3CS-47" value="Bár" style="ellipse;whiteSpace=wrap;html=1;" parent="1" vertex="1">
          <mxGeometry x="330" y="280" width="150" height="90" as="geometry" />
        </mxCell>
        <mxCell id="rUUEe8QkE9hzoTxWt3CS-48" value="Alkalmazott" style="ellipse;whiteSpace=wrap;html=1;" parent="1" vertex="1">
          <mxGeometry x="50" y="280" width="150" height="90" as="geometry" />
        </mxCell>
        <mxCell id="rUUEe8QkE9hzoTxWt3CS-49" value="" style="endArrow=none;html=1;rounded=0;exitX=0.5;exitY=0;exitDx=0;exitDy=0;entryX=0;entryY=0.5;entryDx=0;entryDy=0;" parent="1" source="rUUEe8QkE9hzoTxWt3CS-45" target="rUUEe8QkE9hzoTxWt3CS-42" edge="1">
          <mxGeometry width="50" height="50" relative="1" as="geometry">
            <mxPoint x="450" y="190" as="sourcePoint" />
            <mxPoint x="570" y="60" as="targetPoint" />
          </mxGeometry>
        </mxCell>
        <mxCell id="rUUEe8QkE9hzoTxWt3CS-50" value="" style="endArrow=none;html=1;rounded=0;exitX=0.5;exitY=0;exitDx=0;exitDy=0;entryX=1;entryY=1;entryDx=0;entryDy=0;" parent="1" source="rUUEe8QkE9hzoTxWt3CS-44" target="rUUEe8QkE9hzoTxWt3CS-42" edge="1">
          <mxGeometry width="50" height="50" relative="1" as="geometry">
            <mxPoint x="120" y="230" as="sourcePoint" />
            <mxPoint x="1192" y="147" as="targetPoint" />
          </mxGeometry>
        </mxCell>
        <mxCell id="rUUEe8QkE9hzoTxWt3CS-52" value="" style="endArrow=none;html=1;rounded=0;exitX=0.5;exitY=0;exitDx=0;exitDy=0;entryX=0.5;entryY=1;entryDx=0;entryDy=0;" parent="1" source="rUUEe8QkE9hzoTxWt3CS-43" target="rUUEe8QkE9hzoTxWt3CS-42" edge="1">
          <mxGeometry width="50" height="50" relative="1" as="geometry">
            <mxPoint x="140" y="250" as="sourcePoint" />
            <mxPoint x="611" y="86" as="targetPoint" />
          </mxGeometry>
        </mxCell>
        <mxCell id="rUUEe8QkE9hzoTxWt3CS-53" value="" style="endArrow=none;html=1;rounded=0;exitX=0.5;exitY=0;exitDx=0;exitDy=0;entryX=0;entryY=0.5;entryDx=0;entryDy=0;" parent="1" source="rUUEe8QkE9hzoTxWt3CS-47" target="rUUEe8QkE9hzoTxWt3CS-42" edge="1">
          <mxGeometry width="50" height="50" relative="1" as="geometry">
            <mxPoint x="150" y="260" as="sourcePoint" />
            <mxPoint x="630" y="90" as="targetPoint" />
          </mxGeometry>
        </mxCell>
        <mxCell id="rUUEe8QkE9hzoTxWt3CS-55" value="Nyelvtudás" style="ellipse;whiteSpace=wrap;html=1;" parent="1" vertex="1">
          <mxGeometry x="1840" y="270" width="150" height="90" as="geometry" />
        </mxCell>
        <mxCell id="rUUEe8QkE9hzoTxWt3CS-56" value="" style="endArrow=none;html=1;rounded=0;entryX=1;entryY=0.5;entryDx=0;entryDy=0;exitX=0.5;exitY=0;exitDx=0;exitDy=0;" parent="1" source="rUUEe8QkE9hzoTxWt3CS-55" target="rUUEe8QkE9hzoTxWt3CS-42" edge="1">
          <mxGeometry width="50" height="50" relative="1" as="geometry">
            <mxPoint x="1120" y="200" as="sourcePoint" />
            <mxPoint x="659.9999999999987" y="50" as="targetPoint" />
          </mxGeometry>
        </mxCell>
        <mxCell id="rUUEe8QkE9hzoTxWt3CS-57" value="Közvélemény" style="ellipse;whiteSpace=wrap;html=1;" parent="1" vertex="1">
          <mxGeometry x="2100" y="270" width="150" height="90" as="geometry" />
        </mxCell>
        <mxCell id="rUUEe8QkE9hzoTxWt3CS-58" value="" style="endArrow=none;html=1;rounded=0;entryX=1;entryY=0;entryDx=0;entryDy=0;exitX=0.5;exitY=0;exitDx=0;exitDy=0;" parent="1" source="rUUEe8QkE9hzoTxWt3CS-57" target="rUUEe8QkE9hzoTxWt3CS-42" edge="1">
          <mxGeometry width="50" height="50" relative="1" as="geometry">
            <mxPoint x="600" y="250" as="sourcePoint" />
            <mxPoint x="650" y="200" as="targetPoint" />
          </mxGeometry>
        </mxCell>
        <mxCell id="rUUEe8QkE9hzoTxWt3CS-61" value="" style="endArrow=none;html=1;rounded=0;exitX=0.5;exitY=0;exitDx=0;exitDy=0;entryX=0;entryY=0;entryDx=0;entryDy=0;" parent="1" source="rUUEe8QkE9hzoTxWt3CS-48" target="rUUEe8QkE9hzoTxWt3CS-42" edge="1">
          <mxGeometry width="50" height="50" relative="1" as="geometry">
            <mxPoint x="1110" y="80" as="sourcePoint" />
            <mxPoint x="1160" y="30" as="targetPoint" />
          </mxGeometry>
        </mxCell>
        <mxCell id="rUUEe8QkE9hzoTxWt3CS-62" value="" style="endArrow=none;html=1;rounded=0;exitX=0.5;exitY=0;exitDx=0;exitDy=0;entryX=0;entryY=1;entryDx=0;entryDy=0;" parent="1" source="rUUEe8QkE9hzoTxWt3CS-46" target="rUUEe8QkE9hzoTxWt3CS-42" edge="1">
          <mxGeometry width="50" height="50" relative="1" as="geometry">
            <mxPoint x="1110" y="80" as="sourcePoint" />
            <mxPoint x="1160" y="30" as="targetPoint" />
          </mxGeometry>
        </mxCell>
        <mxCell id="rUUEe8QkE9hzoTxWt3CS-64" value="kérdező" style="ellipse;whiteSpace=wrap;html=1;" parent="1" vertex="1">
          <mxGeometry x="2100" y="440" width="60" height="40" as="geometry" />
        </mxCell>
        <mxCell id="rUUEe8QkE9hzoTxWt3CS-66" value="név" style="ellipse;whiteSpace=wrap;html=1;" parent="1" vertex="1">
          <mxGeometry x="40" y="440" width="60" height="40" as="geometry" />
        </mxCell>
        <mxCell id="rUUEe8QkE9hzoTxWt3CS-67" value="műszak" style="ellipse;whiteSpace=wrap;html=1;" parent="1" vertex="1">
          <mxGeometry x="110" y="440" width="60" height="40" as="geometry" />
        </mxCell>
        <mxCell id="rUUEe8QkE9hzoTxWt3CS-68" value="fizetés" style="ellipse;whiteSpace=wrap;html=1;" parent="1" vertex="1">
          <mxGeometry x="180" y="440" width="60" height="40" as="geometry" />
        </mxCell>
        <mxCell id="rUUEe8QkE9hzoTxWt3CS-69" value="név" style="ellipse;whiteSpace=wrap;html=1;" parent="1" vertex="1">
          <mxGeometry x="340" y="440" width="60" height="40" as="geometry" />
        </mxCell>
        <mxCell id="rUUEe8QkE9hzoTxWt3CS-70" value="ital" style="ellipse;whiteSpace=wrap;html=1;perimeterSpacing=0;" parent="1" vertex="1">
          <mxGeometry x="400" y="440" width="60" height="40" as="geometry" />
        </mxCell>
        <mxCell id="rUUEe8QkE9hzoTxWt3CS-71" value="cég" style="ellipse;whiteSpace=wrap;html=1;" parent="1" vertex="1">
          <mxGeometry x="460" y="440" width="60" height="40" as="geometry" />
        </mxCell>
        <mxCell id="rUUEe8QkE9hzoTxWt3CS-72" value="név" style="ellipse;whiteSpace=wrap;html=1;" parent="1" vertex="1">
          <mxGeometry x="620" y="440" width="60" height="40" as="geometry" />
        </mxCell>
        <mxCell id="rUUEe8QkE9hzoTxWt3CS-73" value="díj" style="ellipse;whiteSpace=wrap;html=1;" parent="1" vertex="1">
          <mxGeometry x="760" y="440" width="60" height="40" as="geometry" />
        </mxCell>
        <mxCell id="rUUEe8QkE9hzoTxWt3CS-74" value="ország" style="ellipse;whiteSpace=wrap;html=1;" parent="1" vertex="1">
          <mxGeometry x="690" y="440" width="60" height="40" as="geometry" />
        </mxCell>
        <mxCell id="rUUEe8QkE9hzoTxWt3CS-75" value="bevétel" style="ellipse;whiteSpace=wrap;html=1;" parent="1" vertex="1">
          <mxGeometry x="1138" y="440" width="60" height="40" as="geometry" />
        </mxCell>
        <mxCell id="rUUEe8QkE9hzoTxWt3CS-76" value="alapítás" style="ellipse;whiteSpace=wrap;html=1;" parent="1" vertex="1">
          <mxGeometry x="1070" y="440" width="60" height="40" as="geometry" />
        </mxCell>
        <mxCell id="rUUEe8QkE9hzoTxWt3CS-77" value="adószám" style="ellipse;whiteSpace=wrap;html=1;" parent="1" vertex="1">
          <mxGeometry x="1000" y="440" width="60" height="40" as="geometry" />
        </mxCell>
        <mxCell id="rUUEe8QkE9hzoTxWt3CS-78" value="név" style="ellipse;whiteSpace=wrap;html=1;" parent="1" vertex="1">
          <mxGeometry x="930" y="440" width="60" height="40" as="geometry" />
        </mxCell>
        <mxCell id="rUUEe8QkE9hzoTxWt3CS-79" value="év" style="ellipse;whiteSpace=wrap;html=1;" parent="1" vertex="1">
          <mxGeometry x="1390" y="440" width="60" height="40" as="geometry" />
        </mxCell>
        <mxCell id="rUUEe8QkE9hzoTxWt3CS-80" value="helyszín" style="ellipse;whiteSpace=wrap;html=1;" parent="1" vertex="1">
          <mxGeometry x="1330" y="440" width="60" height="40" as="geometry" />
        </mxCell>
        <mxCell id="rUUEe8QkE9hzoTxWt3CS-81" value="név" style="ellipse;whiteSpace=wrap;html=1;" parent="1" vertex="1">
          <mxGeometry x="1270" y="440" width="60" height="40" as="geometry" />
        </mxCell>
        <mxCell id="rUUEe8QkE9hzoTxWt3CS-84" value="szint" style="ellipse;whiteSpace=wrap;html=1;" parent="1" vertex="1">
          <mxGeometry x="1910" y="440" width="60" height="40" as="geometry" />
        </mxCell>
        <mxCell id="rUUEe8QkE9hzoTxWt3CS-85" value="nyelv" style="ellipse;whiteSpace=wrap;html=1;" parent="1" vertex="1">
          <mxGeometry x="1840" y="440" width="60" height="40" as="geometry" />
        </mxCell>
        <mxCell id="rUUEe8QkE9hzoTxWt3CS-86" value="lakcím" style="ellipse;whiteSpace=wrap;html=1;" parent="1" vertex="1">
          <mxGeometry x="1670" y="440" width="60" height="40" as="geometry" />
        </mxCell>
        <mxCell id="rUUEe8QkE9hzoTxWt3CS-87" value="diákigazolvány" style="ellipse;whiteSpace=wrap;html=1;dashed=1;" parent="1" vertex="1">
          <mxGeometry x="1610" y="440" width="60" height="40" as="geometry" />
        </mxCell>
        <mxCell id="rUUEe8QkE9hzoTxWt3CS-88" value="név" style="ellipse;whiteSpace=wrap;html=1;" parent="1" vertex="1">
          <mxGeometry x="1550" y="440" width="60" height="40" as="geometry" />
        </mxCell>
        <mxCell id="rUUEe8QkE9hzoTxWt3CS-90" value="nyelvtudás" style="rhombus;whiteSpace=wrap;html=1;" parent="1" vertex="1">
          <mxGeometry x="2170" y="440" width="40" height="40" as="geometry" />
        </mxCell>
        <mxCell id="rUUEe8QkE9hzoTxWt3CS-91" value="&lt;u&gt;K_ID&lt;/u&gt;" style="rhombus;whiteSpace=wrap;html=1;" parent="1" vertex="1">
          <mxGeometry x="2050" y="440" width="40" height="40" as="geometry" />
        </mxCell>
        <mxCell id="rUUEe8QkE9hzoTxWt3CS-92" value="résztvevő" style="rhombus;whiteSpace=wrap;html=1;" parent="1" vertex="1">
          <mxGeometry x="2220" y="440" width="40" height="40" as="geometry" />
        </mxCell>
        <mxCell id="rUUEe8QkE9hzoTxWt3CS-94" value="Fesztivál" style="rhombus;whiteSpace=wrap;html=1;" parent="1" vertex="1">
          <mxGeometry x="1210" y="440" width="40" height="40" as="geometry" />
        </mxCell>
        <mxCell id="rUUEe8QkE9hzoTxWt3CS-95" value="Munkahely" style="rhombus;whiteSpace=wrap;html=1;" parent="1" vertex="1">
          <mxGeometry x="240" y="440" width="40" height="40" as="geometry" />
        </mxCell>
        <mxCell id="rUUEe8QkE9hzoTxWt3CS-96" value="Fesztivál" style="rhombus;whiteSpace=wrap;html=1;" parent="1" vertex="1">
          <mxGeometry x="520" y="440" width="40" height="40" as="geometry" />
        </mxCell>
        <mxCell id="rUUEe8QkE9hzoTxWt3CS-97" value="B_ID" style="rhombus;whiteSpace=wrap;html=1;" parent="1" vertex="1">
          <mxGeometry x="300" y="440" width="40" height="40" as="geometry" />
        </mxCell>
        <mxCell id="rUUEe8QkE9hzoTxWt3CS-98" value="Fesztivál" style="rhombus;whiteSpace=wrap;html=1;" parent="1" vertex="1">
          <mxGeometry x="1740" y="440" width="40" height="40" as="geometry" />
        </mxCell>
        <mxCell id="rUUEe8QkE9hzoTxWt3CS-99" value="Ny_ID" style="rhombus;whiteSpace=wrap;html=1;fontStyle=4" parent="1" vertex="1">
          <mxGeometry x="1790" y="440" width="40" height="40" as="geometry" />
        </mxCell>
        <mxCell id="rUUEe8QkE9hzoTxWt3CS-102" value="Fesztivál" style="rhombus;whiteSpace=wrap;html=1;" parent="1" vertex="1">
          <mxGeometry x="830" y="440" width="40" height="40" as="geometry" />
        </mxCell>
        <mxCell id="rUUEe8QkE9hzoTxWt3CS-104" value="&lt;u&gt;T_ID&lt;/u&gt;" style="rhombus;whiteSpace=wrap;html=1;" parent="1" vertex="1">
          <mxGeometry x="880" y="440" width="40" height="40" as="geometry" />
        </mxCell>
        <mxCell id="rUUEe8QkE9hzoTxWt3CS-106" value="Fesz_ID" style="rhombus;whiteSpace=wrap;html=1;fontStyle=4" parent="1" vertex="1">
          <mxGeometry x="1450" y="440" width="40" height="40" as="geometry" />
        </mxCell>
        <mxCell id="rUUEe8QkE9hzoTxWt3CS-107" value="A_ID" style="rhombus;whiteSpace=wrap;html=1;fontStyle=4" parent="1" vertex="1">
          <mxGeometry y="440" width="40" height="40" as="geometry" />
        </mxCell>
        <mxCell id="rUUEe8QkE9hzoTxWt3CS-111" value="Fel_ID" style="rhombus;whiteSpace=wrap;html=1;fontStyle=4" parent="1" vertex="1">
          <mxGeometry x="570" y="440" width="40" height="40" as="geometry" />
        </mxCell>
        <mxCell id="rUUEe8QkE9hzoTxWt3CS-112" value="utca" style="ellipse;whiteSpace=wrap;html=1;" parent="1" vertex="1">
          <mxGeometry x="1640" y="520" width="60" height="40" as="geometry" />
        </mxCell>
        <mxCell id="rUUEe8QkE9hzoTxWt3CS-113" value="házszám" style="ellipse;whiteSpace=wrap;html=1;" parent="1" vertex="1">
          <mxGeometry x="1700" y="520" width="60" height="40" as="geometry" />
        </mxCell>
        <mxCell id="rUUEe8QkE9hzoTxWt3CS-114" value="település" style="ellipse;whiteSpace=wrap;html=1;" parent="1" vertex="1">
          <mxGeometry x="1580" y="520" width="60" height="40" as="geometry" />
        </mxCell>
        <mxCell id="NnnLSMgLc5xRbMuPw9LD-1" value="" style="endArrow=none;dashed=1;html=1;dashPattern=1 3;strokeWidth=2;rounded=0;" edge="1" parent="1">
          <mxGeometry width="50" height="50" relative="1" as="geometry">
            <mxPoint x="240" y="470" as="sourcePoint" />
            <mxPoint x="290" y="470" as="targetPoint" />
          </mxGeometry>
        </mxCell>
        <mxCell id="NnnLSMgLc5xRbMuPw9LD-3" value="" style="endArrow=classic;html=1;rounded=0;entryX=0.5;entryY=1;entryDx=0;entryDy=0;" edge="1" parent="1" target="rUUEe8QkE9hzoTxWt3CS-97">
          <mxGeometry width="50" height="50" relative="1" as="geometry">
            <mxPoint x="320" y="510" as="sourcePoint" />
            <mxPoint x="190" y="520" as="targetPoint" />
          </mxGeometry>
        </mxCell>
        <mxCell id="NnnLSMgLc5xRbMuPw9LD-4" value="" style="endArrow=none;html=1;rounded=0;" edge="1" parent="1">
          <mxGeometry width="50" height="50" relative="1" as="geometry">
            <mxPoint x="260" y="510" as="sourcePoint" />
            <mxPoint x="320" y="510" as="targetPoint" />
            <Array as="points" />
          </mxGeometry>
        </mxCell>
        <mxCell id="NnnLSMgLc5xRbMuPw9LD-6" value="" style="endArrow=none;html=1;rounded=0;entryX=0.5;entryY=1;entryDx=0;entryDy=0;" edge="1" parent="1" target="rUUEe8QkE9hzoTxWt3CS-95">
          <mxGeometry width="50" height="50" relative="1" as="geometry">
            <mxPoint x="260" y="510" as="sourcePoint" />
            <mxPoint x="510" y="320" as="targetPoint" />
          </mxGeometry>
        </mxCell>
        <mxCell id="NnnLSMgLc5xRbMuPw9LD-7" value="" style="endArrow=none;dashed=1;html=1;dashPattern=1 3;strokeWidth=2;rounded=0;" edge="1" parent="1">
          <mxGeometry width="50" height="50" relative="1" as="geometry">
            <mxPoint x="520" y="470" as="sourcePoint" />
            <mxPoint x="560" y="470" as="targetPoint" />
          </mxGeometry>
        </mxCell>
        <mxCell id="NnnLSMgLc5xRbMuPw9LD-8" value="" style="endArrow=none;dashed=1;html=1;dashPattern=1 3;strokeWidth=2;rounded=0;" edge="1" parent="1">
          <mxGeometry width="50" height="50" relative="1" as="geometry">
            <mxPoint x="830" y="470" as="sourcePoint" />
            <mxPoint x="870" y="470" as="targetPoint" />
          </mxGeometry>
        </mxCell>
        <mxCell id="NnnLSMgLc5xRbMuPw9LD-9" value="" style="endArrow=none;dashed=1;html=1;dashPattern=1 3;strokeWidth=2;rounded=0;" edge="1" parent="1">
          <mxGeometry width="50" height="50" relative="1" as="geometry">
            <mxPoint x="1210" y="470" as="sourcePoint" />
            <mxPoint x="1250" y="470" as="targetPoint" />
          </mxGeometry>
        </mxCell>
        <mxCell id="NnnLSMgLc5xRbMuPw9LD-11" value="" style="endArrow=none;html=1;rounded=0;entryX=0.5;entryY=1;entryDx=0;entryDy=0;" edge="1" parent="1">
          <mxGeometry width="50" height="50" relative="1" as="geometry">
            <mxPoint x="1229.52" y="510" as="sourcePoint" />
            <mxPoint x="1229.52" y="480" as="targetPoint" />
          </mxGeometry>
        </mxCell>
        <mxCell id="NnnLSMgLc5xRbMuPw9LD-12" value="" style="endArrow=none;html=1;rounded=0;" edge="1" parent="1">
          <mxGeometry width="50" height="50" relative="1" as="geometry">
            <mxPoint x="1230" y="510" as="sourcePoint" />
            <mxPoint x="1460" y="510" as="targetPoint" />
            <Array as="points" />
          </mxGeometry>
        </mxCell>
        <mxCell id="NnnLSMgLc5xRbMuPw9LD-13" value="" style="endArrow=classic;html=1;rounded=0;entryX=0;entryY=1;entryDx=0;entryDy=0;" edge="1" parent="1" target="rUUEe8QkE9hzoTxWt3CS-106">
          <mxGeometry width="50" height="50" relative="1" as="geometry">
            <mxPoint x="1460" y="510" as="sourcePoint" />
            <mxPoint x="1460" y="480" as="targetPoint" />
            <Array as="points" />
          </mxGeometry>
        </mxCell>
        <mxCell id="NnnLSMgLc5xRbMuPw9LD-14" value="" style="endArrow=none;html=1;rounded=0;entryX=0.5;entryY=1;entryDx=0;entryDy=0;" edge="1" parent="1">
          <mxGeometry width="50" height="50" relative="1" as="geometry">
            <mxPoint x="540" y="570" as="sourcePoint" />
            <mxPoint x="539.52" y="480" as="targetPoint" />
          </mxGeometry>
        </mxCell>
        <mxCell id="NnnLSMgLc5xRbMuPw9LD-15" value="" style="endArrow=none;html=1;rounded=0;entryX=0.5;entryY=1;entryDx=0;entryDy=0;" edge="1" parent="1">
          <mxGeometry width="50" height="50" relative="1" as="geometry">
            <mxPoint x="850" y="540" as="sourcePoint" />
            <mxPoint x="849.52" y="480" as="targetPoint" />
          </mxGeometry>
        </mxCell>
        <mxCell id="NnnLSMgLc5xRbMuPw9LD-16" value="" style="endArrow=none;html=1;rounded=0;" edge="1" parent="1">
          <mxGeometry width="50" height="50" relative="1" as="geometry">
            <mxPoint x="540" y="570" as="sourcePoint" />
            <mxPoint x="1480" y="570" as="targetPoint" />
            <Array as="points" />
          </mxGeometry>
        </mxCell>
        <mxCell id="NnnLSMgLc5xRbMuPw9LD-17" value="" style="endArrow=none;html=1;rounded=0;" edge="1" parent="1">
          <mxGeometry width="50" height="50" relative="1" as="geometry">
            <mxPoint x="850" y="540" as="sourcePoint" />
            <mxPoint x="1470" y="540" as="targetPoint" />
            <Array as="points" />
          </mxGeometry>
        </mxCell>
        <mxCell id="NnnLSMgLc5xRbMuPw9LD-18" value="" style="endArrow=classic;html=1;rounded=0;entryX=1;entryY=1;entryDx=0;entryDy=0;" edge="1" parent="1">
          <mxGeometry width="50" height="50" relative="1" as="geometry">
            <mxPoint x="1470" y="540" as="sourcePoint" />
            <mxPoint x="1470" y="470.0000000000001" as="targetPoint" />
          </mxGeometry>
        </mxCell>
        <mxCell id="NnnLSMgLc5xRbMuPw9LD-19" value="" style="endArrow=classic;html=1;rounded=0;entryX=1;entryY=1;entryDx=0;entryDy=0;" edge="1" parent="1" target="rUUEe8QkE9hzoTxWt3CS-106">
          <mxGeometry width="50" height="50" relative="1" as="geometry">
            <mxPoint x="1480" y="570" as="sourcePoint" />
            <mxPoint x="1500" y="540" as="targetPoint" />
          </mxGeometry>
        </mxCell>
        <mxCell id="NnnLSMgLc5xRbMuPw9LD-20" value="" style="endArrow=none;dashed=1;html=1;dashPattern=1 3;strokeWidth=2;rounded=0;" edge="1" parent="1">
          <mxGeometry width="50" height="50" relative="1" as="geometry">
            <mxPoint x="1740" y="470" as="sourcePoint" />
            <mxPoint x="1780" y="470" as="targetPoint" />
          </mxGeometry>
        </mxCell>
        <mxCell id="NnnLSMgLc5xRbMuPw9LD-21" value="R_ID" style="rhombus;whiteSpace=wrap;html=1;fontStyle=4" vertex="1" parent="1">
          <mxGeometry x="1500" y="440" width="40" height="40" as="geometry" />
        </mxCell>
        <mxCell id="NnnLSMgLc5xRbMuPw9LD-22" value="" style="endArrow=none;html=1;rounded=0;entryX=0.5;entryY=1;entryDx=0;entryDy=0;" edge="1" parent="1">
          <mxGeometry width="50" height="50" relative="1" as="geometry">
            <mxPoint x="1760" y="580" as="sourcePoint" />
            <mxPoint x="1759.52" y="480" as="targetPoint" />
          </mxGeometry>
        </mxCell>
        <mxCell id="NnnLSMgLc5xRbMuPw9LD-23" value="" style="endArrow=none;html=1;rounded=0;" edge="1" parent="1">
          <mxGeometry width="50" height="50" relative="1" as="geometry">
            <mxPoint x="1490" y="580" as="sourcePoint" />
            <mxPoint x="1760" y="580" as="targetPoint" />
            <Array as="points" />
          </mxGeometry>
        </mxCell>
        <mxCell id="NnnLSMgLc5xRbMuPw9LD-24" value="" style="endArrow=classic;html=1;rounded=0;entryX=1;entryY=1;entryDx=0;entryDy=0;" edge="1" parent="1">
          <mxGeometry width="50" height="50" relative="1" as="geometry">
            <mxPoint x="1490" y="580" as="sourcePoint" />
            <mxPoint x="1490" y="460" as="targetPoint" />
          </mxGeometry>
        </mxCell>
        <mxCell id="NnnLSMgLc5xRbMuPw9LD-25" value="" style="endArrow=none;html=1;rounded=0;entryX=0.5;entryY=1;entryDx=0;entryDy=0;" edge="1" parent="1">
          <mxGeometry width="50" height="50" relative="1" as="geometry">
            <mxPoint x="2190" y="530" as="sourcePoint" />
            <mxPoint x="2189.52" y="480" as="targetPoint" />
          </mxGeometry>
        </mxCell>
        <mxCell id="NnnLSMgLc5xRbMuPw9LD-26" value="" style="endArrow=none;html=1;rounded=0;" edge="1" parent="1">
          <mxGeometry width="50" height="50" relative="1" as="geometry">
            <mxPoint x="1810" y="530" as="sourcePoint" />
            <mxPoint x="2190" y="530" as="targetPoint" />
            <Array as="points" />
          </mxGeometry>
        </mxCell>
        <mxCell id="NnnLSMgLc5xRbMuPw9LD-27" value="" style="endArrow=classic;html=1;rounded=0;entryX=0;entryY=1;entryDx=0;entryDy=0;" edge="1" parent="1">
          <mxGeometry width="50" height="50" relative="1" as="geometry">
            <mxPoint x="1810" y="530" as="sourcePoint" />
            <mxPoint x="1809.52" y="480" as="targetPoint" />
            <Array as="points" />
          </mxGeometry>
        </mxCell>
        <mxCell id="NnnLSMgLc5xRbMuPw9LD-28" value="" style="endArrow=none;html=1;rounded=0;" edge="1" parent="1">
          <mxGeometry width="50" height="50" relative="1" as="geometry">
            <mxPoint x="1520" y="600" as="sourcePoint" />
            <mxPoint x="2240" y="600" as="targetPoint" />
            <Array as="points" />
          </mxGeometry>
        </mxCell>
        <mxCell id="NnnLSMgLc5xRbMuPw9LD-29" value="" style="endArrow=none;html=1;rounded=0;entryX=0.5;entryY=1;entryDx=0;entryDy=0;" edge="1" parent="1">
          <mxGeometry width="50" height="50" relative="1" as="geometry">
            <mxPoint x="2240" y="600" as="sourcePoint" />
            <mxPoint x="2239.52" y="480" as="targetPoint" />
          </mxGeometry>
        </mxCell>
        <mxCell id="NnnLSMgLc5xRbMuPw9LD-30" value="" style="endArrow=classic;html=1;rounded=0;entryX=0;entryY=1;entryDx=0;entryDy=0;" edge="1" parent="1">
          <mxGeometry width="50" height="50" relative="1" as="geometry">
            <mxPoint x="1520" y="600" as="sourcePoint" />
            <mxPoint x="1519.52" y="480" as="targetPoint" />
            <Array as="points" />
          </mxGeometry>
        </mxCell>
        <mxCell id="NnnLSMgLc5xRbMuPw9LD-32" value="" style="endArrow=none;dashed=1;html=1;dashPattern=1 3;strokeWidth=2;rounded=0;" edge="1" parent="1">
          <mxGeometry width="50" height="50" relative="1" as="geometry">
            <mxPoint x="2220" y="470" as="sourcePoint" />
            <mxPoint x="2260" y="470" as="targetPoint" />
          </mxGeometry>
        </mxCell>
        <mxCell id="NnnLSMgLc5xRbMuPw9LD-33" value="" style="endArrow=none;dashed=1;html=1;dashPattern=1 3;strokeWidth=2;rounded=0;" edge="1" parent="1">
          <mxGeometry width="50" height="50" relative="1" as="geometry">
            <mxPoint x="2170" y="470" as="sourcePoint" />
            <mxPoint x="2210" y="470" as="targetPoint" />
          </mxGeometry>
        </mxCell>
        <mxCell id="NnnLSMgLc5xRbMuPw9LD-36" value="" style="endArrow=none;html=1;rounded=0;exitX=0.5;exitY=0;exitDx=0;exitDy=0;entryX=0.111;entryY=0.809;entryDx=0;entryDy=0;entryPerimeter=0;" edge="1" parent="1" source="rUUEe8QkE9hzoTxWt3CS-107" target="rUUEe8QkE9hzoTxWt3CS-48">
          <mxGeometry width="50" height="50" relative="1" as="geometry">
            <mxPoint x="20" y="410" as="sourcePoint" />
            <mxPoint x="70" y="360" as="targetPoint" />
          </mxGeometry>
        </mxCell>
        <mxCell id="NnnLSMgLc5xRbMuPw9LD-37" value="" style="endArrow=none;html=1;rounded=0;entryX=0.274;entryY=0.936;entryDx=0;entryDy=0;entryPerimeter=0;exitX=0.5;exitY=0;exitDx=0;exitDy=0;" edge="1" parent="1" source="rUUEe8QkE9hzoTxWt3CS-66" target="rUUEe8QkE9hzoTxWt3CS-48">
          <mxGeometry width="50" height="50" relative="1" as="geometry">
            <mxPoint x="55" y="420" as="sourcePoint" />
            <mxPoint x="105" y="370" as="targetPoint" />
          </mxGeometry>
        </mxCell>
        <mxCell id="NnnLSMgLc5xRbMuPw9LD-38" value="" style="endArrow=none;html=1;rounded=0;entryX=0.5;entryY=1;entryDx=0;entryDy=0;exitX=0.5;exitY=0;exitDx=0;exitDy=0;" edge="1" parent="1" source="rUUEe8QkE9hzoTxWt3CS-67" target="rUUEe8QkE9hzoTxWt3CS-48">
          <mxGeometry width="50" height="50" relative="1" as="geometry">
            <mxPoint x="140" y="660" as="sourcePoint" />
            <mxPoint x="190" y="610" as="targetPoint" />
          </mxGeometry>
        </mxCell>
        <mxCell id="NnnLSMgLc5xRbMuPw9LD-39" value="" style="endArrow=none;html=1;rounded=0;entryX=0.736;entryY=0.944;entryDx=0;entryDy=0;entryPerimeter=0;exitX=0.5;exitY=0;exitDx=0;exitDy=0;" edge="1" parent="1" source="rUUEe8QkE9hzoTxWt3CS-68" target="rUUEe8QkE9hzoTxWt3CS-48">
          <mxGeometry width="50" height="50" relative="1" as="geometry">
            <mxPoint x="150" y="670" as="sourcePoint" />
            <mxPoint x="200" y="620" as="targetPoint" />
          </mxGeometry>
        </mxCell>
        <mxCell id="NnnLSMgLc5xRbMuPw9LD-40" value="" style="endArrow=none;html=1;rounded=0;entryX=0.949;entryY=0.716;entryDx=0;entryDy=0;entryPerimeter=0;exitX=0.5;exitY=0;exitDx=0;exitDy=0;" edge="1" parent="1" source="rUUEe8QkE9hzoTxWt3CS-95" target="rUUEe8QkE9hzoTxWt3CS-48">
          <mxGeometry width="50" height="50" relative="1" as="geometry">
            <mxPoint x="160" y="680" as="sourcePoint" />
            <mxPoint x="210" y="630" as="targetPoint" />
          </mxGeometry>
        </mxCell>
        <mxCell id="NnnLSMgLc5xRbMuPw9LD-41" value="" style="endArrow=none;html=1;rounded=0;entryX=0;entryY=1;entryDx=0;entryDy=0;exitX=0.5;exitY=0;exitDx=0;exitDy=0;" edge="1" parent="1" source="rUUEe8QkE9hzoTxWt3CS-97" target="rUUEe8QkE9hzoTxWt3CS-47">
          <mxGeometry width="50" height="50" relative="1" as="geometry">
            <mxPoint x="170" y="690" as="sourcePoint" />
            <mxPoint x="220" y="640" as="targetPoint" />
          </mxGeometry>
        </mxCell>
        <mxCell id="NnnLSMgLc5xRbMuPw9LD-42" value="" style="endArrow=none;html=1;rounded=0;entryX=0.5;entryY=1;entryDx=0;entryDy=0;exitX=0.413;exitY=-0.104;exitDx=0;exitDy=0;exitPerimeter=0;" edge="1" parent="1" source="rUUEe8QkE9hzoTxWt3CS-70" target="rUUEe8QkE9hzoTxWt3CS-47">
          <mxGeometry width="50" height="50" relative="1" as="geometry">
            <mxPoint x="450" y="420" as="sourcePoint" />
            <mxPoint x="120" y="515" as="targetPoint" />
          </mxGeometry>
        </mxCell>
        <mxCell id="NnnLSMgLc5xRbMuPw9LD-43" value="" style="endArrow=none;html=1;rounded=0;entryX=0;entryY=1;entryDx=0;entryDy=0;exitX=0.5;exitY=0;exitDx=0;exitDy=0;" edge="1" parent="1" source="rUUEe8QkE9hzoTxWt3CS-81" target="rUUEe8QkE9hzoTxWt3CS-43">
          <mxGeometry width="50" height="50" relative="1" as="geometry">
            <mxPoint x="1240" y="400" as="sourcePoint" />
            <mxPoint x="1290" y="350" as="targetPoint" />
          </mxGeometry>
        </mxCell>
        <mxCell id="NnnLSMgLc5xRbMuPw9LD-44" value="" style="endArrow=none;html=1;rounded=0;entryX=1;entryY=0.5;entryDx=0;entryDy=0;exitX=0.5;exitY=0;exitDx=0;exitDy=0;" edge="1" parent="1" source="rUUEe8QkE9hzoTxWt3CS-94" target="rUUEe8QkE9hzoTxWt3CS-46">
          <mxGeometry width="50" height="50" relative="1" as="geometry">
            <mxPoint x="670" y="755" as="sourcePoint" />
            <mxPoint x="720" y="705" as="targetPoint" />
          </mxGeometry>
        </mxCell>
        <mxCell id="NnnLSMgLc5xRbMuPw9LD-45" value="" style="endArrow=none;html=1;rounded=0;entryX=0.725;entryY=0.946;entryDx=0;entryDy=0;entryPerimeter=0;exitX=0.5;exitY=0;exitDx=0;exitDy=0;" edge="1" parent="1" source="rUUEe8QkE9hzoTxWt3CS-76" target="rUUEe8QkE9hzoTxWt3CS-46">
          <mxGeometry width="50" height="50" relative="1" as="geometry">
            <mxPoint x="680" y="765" as="sourcePoint" />
            <mxPoint x="730" y="715" as="targetPoint" />
          </mxGeometry>
        </mxCell>
        <mxCell id="NnnLSMgLc5xRbMuPw9LD-46" value="" style="endArrow=none;html=1;rounded=0;entryX=0.703;entryY=0.944;entryDx=0;entryDy=0;entryPerimeter=0;exitX=0.5;exitY=0;exitDx=0;exitDy=0;" edge="1" parent="1" source="rUUEe8QkE9hzoTxWt3CS-71" target="rUUEe8QkE9hzoTxWt3CS-47">
          <mxGeometry width="50" height="50" relative="1" as="geometry">
            <mxPoint x="80" y="575" as="sourcePoint" />
            <mxPoint x="130" y="525" as="targetPoint" />
          </mxGeometry>
        </mxCell>
        <mxCell id="NnnLSMgLc5xRbMuPw9LD-47" value="" style="endArrow=none;html=1;rounded=0;entryX=1;entryY=1;entryDx=0;entryDy=0;exitX=0.5;exitY=0;exitDx=0;exitDy=0;" edge="1" parent="1" source="rUUEe8QkE9hzoTxWt3CS-96" target="rUUEe8QkE9hzoTxWt3CS-47">
          <mxGeometry width="50" height="50" relative="1" as="geometry">
            <mxPoint x="90" y="585" as="sourcePoint" />
            <mxPoint x="140" y="535" as="targetPoint" />
          </mxGeometry>
        </mxCell>
        <mxCell id="NnnLSMgLc5xRbMuPw9LD-48" value="" style="endArrow=none;html=1;rounded=0;exitX=0.5;exitY=0;exitDx=0;exitDy=0;" edge="1" parent="1" source="rUUEe8QkE9hzoTxWt3CS-73" target="rUUEe8QkE9hzoTxWt3CS-45">
          <mxGeometry width="50" height="50" relative="1" as="geometry">
            <mxPoint x="260" y="720" as="sourcePoint" />
            <mxPoint x="310" y="670" as="targetPoint" />
          </mxGeometry>
        </mxCell>
        <mxCell id="NnnLSMgLc5xRbMuPw9LD-49" value="" style="endArrow=none;html=1;rounded=0;entryX=0.245;entryY=0.953;entryDx=0;entryDy=0;entryPerimeter=0;exitX=0.5;exitY=0;exitDx=0;exitDy=0;" edge="1" parent="1" source="rUUEe8QkE9hzoTxWt3CS-72" target="rUUEe8QkE9hzoTxWt3CS-45">
          <mxGeometry width="50" height="50" relative="1" as="geometry">
            <mxPoint x="110" y="605" as="sourcePoint" />
            <mxPoint x="160" y="555" as="targetPoint" />
          </mxGeometry>
        </mxCell>
        <mxCell id="NnnLSMgLc5xRbMuPw9LD-50" value="" style="endArrow=none;html=1;rounded=0;exitX=0.5;exitY=0;exitDx=0;exitDy=0;" edge="1" parent="1" source="rUUEe8QkE9hzoTxWt3CS-104" target="rUUEe8QkE9hzoTxWt3CS-46">
          <mxGeometry width="50" height="50" relative="1" as="geometry">
            <mxPoint x="590" y="650" as="sourcePoint" />
            <mxPoint x="640" y="600" as="targetPoint" />
          </mxGeometry>
        </mxCell>
        <mxCell id="NnnLSMgLc5xRbMuPw9LD-52" value="" style="endArrow=none;html=1;rounded=0;entryX=1;entryY=1;entryDx=0;entryDy=0;exitX=0.5;exitY=0;exitDx=0;exitDy=0;" edge="1" parent="1" source="rUUEe8QkE9hzoTxWt3CS-92" target="rUUEe8QkE9hzoTxWt3CS-57">
          <mxGeometry width="50" height="50" relative="1" as="geometry">
            <mxPoint x="1385" y="650" as="sourcePoint" />
            <mxPoint x="1435" y="600" as="targetPoint" />
          </mxGeometry>
        </mxCell>
        <mxCell id="NnnLSMgLc5xRbMuPw9LD-53" value="" style="endArrow=none;html=1;rounded=0;entryX=0;entryY=1;entryDx=0;entryDy=0;exitX=0.5;exitY=0;exitDx=0;exitDy=0;" edge="1" parent="1" source="rUUEe8QkE9hzoTxWt3CS-91" target="rUUEe8QkE9hzoTxWt3CS-57">
          <mxGeometry width="50" height="50" relative="1" as="geometry">
            <mxPoint x="1395" y="660" as="sourcePoint" />
            <mxPoint x="1445" y="610" as="targetPoint" />
          </mxGeometry>
        </mxCell>
        <mxCell id="NnnLSMgLc5xRbMuPw9LD-54" value="" style="endArrow=none;html=1;rounded=0;entryX=0.703;entryY=0.962;entryDx=0;entryDy=0;entryPerimeter=0;exitX=0.5;exitY=0;exitDx=0;exitDy=0;" edge="1" parent="1" source="rUUEe8QkE9hzoTxWt3CS-84" target="rUUEe8QkE9hzoTxWt3CS-55">
          <mxGeometry width="50" height="50" relative="1" as="geometry">
            <mxPoint x="1405" y="670" as="sourcePoint" />
            <mxPoint x="1455" y="620" as="targetPoint" />
          </mxGeometry>
        </mxCell>
        <mxCell id="NnnLSMgLc5xRbMuPw9LD-55" value="" style="endArrow=none;html=1;rounded=0;entryX=0.26;entryY=0.962;entryDx=0;entryDy=0;entryPerimeter=0;exitX=0.5;exitY=0;exitDx=0;exitDy=0;" edge="1" parent="1" source="rUUEe8QkE9hzoTxWt3CS-88" target="rUUEe8QkE9hzoTxWt3CS-44">
          <mxGeometry width="50" height="50" relative="1" as="geometry">
            <mxPoint x="1415" y="680" as="sourcePoint" />
            <mxPoint x="1465" y="630" as="targetPoint" />
          </mxGeometry>
        </mxCell>
        <mxCell id="NnnLSMgLc5xRbMuPw9LD-56" value="" style="endArrow=none;html=1;rounded=0;entryX=0.975;entryY=0.708;entryDx=0;entryDy=0;entryPerimeter=0;exitX=0.5;exitY=0;exitDx=0;exitDy=0;" edge="1" parent="1" source="rUUEe8QkE9hzoTxWt3CS-106" target="rUUEe8QkE9hzoTxWt3CS-43">
          <mxGeometry width="50" height="50" relative="1" as="geometry">
            <mxPoint x="650" y="710" as="sourcePoint" />
            <mxPoint x="700" y="660" as="targetPoint" />
          </mxGeometry>
        </mxCell>
        <mxCell id="NnnLSMgLc5xRbMuPw9LD-57" value="" style="endArrow=none;html=1;rounded=0;exitX=0.5;exitY=0;exitDx=0;exitDy=0;entryX=0.261;entryY=0.961;entryDx=0;entryDy=0;entryPerimeter=0;" edge="1" parent="1" source="rUUEe8QkE9hzoTxWt3CS-69" target="rUUEe8QkE9hzoTxWt3CS-47">
          <mxGeometry width="50" height="50" relative="1" as="geometry">
            <mxPoint x="330" y="420" as="sourcePoint" />
            <mxPoint x="380" y="370" as="targetPoint" />
          </mxGeometry>
        </mxCell>
        <mxCell id="NnnLSMgLc5xRbMuPw9LD-58" value="" style="endArrow=none;html=1;rounded=0;exitX=0.5;exitY=0;exitDx=0;exitDy=0;entryX=0.923;entryY=0.751;entryDx=0;entryDy=0;entryPerimeter=0;" edge="1" parent="1" source="rUUEe8QkE9hzoTxWt3CS-75" target="rUUEe8QkE9hzoTxWt3CS-46">
          <mxGeometry width="50" height="50" relative="1" as="geometry">
            <mxPoint x="670" y="755" as="sourcePoint" />
            <mxPoint x="720" y="705" as="targetPoint" />
          </mxGeometry>
        </mxCell>
        <mxCell id="NnnLSMgLc5xRbMuPw9LD-59" value="" style="endArrow=none;html=1;rounded=0;entryX=0.5;entryY=1;entryDx=0;entryDy=0;exitX=0.5;exitY=0;exitDx=0;exitDy=0;" edge="1" parent="1" source="rUUEe8QkE9hzoTxWt3CS-77" target="rUUEe8QkE9hzoTxWt3CS-46">
          <mxGeometry width="50" height="50" relative="1" as="geometry">
            <mxPoint x="680" y="765" as="sourcePoint" />
            <mxPoint x="730" y="715" as="targetPoint" />
          </mxGeometry>
        </mxCell>
        <mxCell id="NnnLSMgLc5xRbMuPw9LD-60" value="" style="endArrow=none;html=1;rounded=0;entryX=0.364;entryY=0.988;entryDx=0;entryDy=0;entryPerimeter=0;exitX=0.5;exitY=0;exitDx=0;exitDy=0;" edge="1" parent="1" source="rUUEe8QkE9hzoTxWt3CS-78" target="rUUEe8QkE9hzoTxWt3CS-46">
          <mxGeometry width="50" height="50" relative="1" as="geometry">
            <mxPoint x="690" y="775" as="sourcePoint" />
            <mxPoint x="740" y="725" as="targetPoint" />
          </mxGeometry>
        </mxCell>
        <mxCell id="NnnLSMgLc5xRbMuPw9LD-61" value="" style="endArrow=none;html=1;rounded=0;entryX=0.057;entryY=0.758;entryDx=0;entryDy=0;entryPerimeter=0;exitX=0.5;exitY=0;exitDx=0;exitDy=0;" edge="1" parent="1" source="rUUEe8QkE9hzoTxWt3CS-111" target="rUUEe8QkE9hzoTxWt3CS-45">
          <mxGeometry width="50" height="50" relative="1" as="geometry">
            <mxPoint x="630" y="400" as="sourcePoint" />
            <mxPoint x="680" y="350" as="targetPoint" />
          </mxGeometry>
        </mxCell>
        <mxCell id="NnnLSMgLc5xRbMuPw9LD-62" value="" style="endArrow=none;html=1;rounded=0;entryX=1;entryY=1;entryDx=0;entryDy=0;exitX=0.5;exitY=0;exitDx=0;exitDy=0;" edge="1" parent="1" source="rUUEe8QkE9hzoTxWt3CS-102" target="rUUEe8QkE9hzoTxWt3CS-45">
          <mxGeometry width="50" height="50" relative="1" as="geometry">
            <mxPoint x="590" y="650" as="sourcePoint" />
            <mxPoint x="640" y="600" as="targetPoint" />
          </mxGeometry>
        </mxCell>
        <mxCell id="NnnLSMgLc5xRbMuPw9LD-63" value="" style="endArrow=none;html=1;rounded=0;entryX=0.408;entryY=1.012;entryDx=0;entryDy=0;entryPerimeter=0;exitX=0.5;exitY=0;exitDx=0;exitDy=0;" edge="1" parent="1" source="rUUEe8QkE9hzoTxWt3CS-74" target="rUUEe8QkE9hzoTxWt3CS-45">
          <mxGeometry width="50" height="50" relative="1" as="geometry">
            <mxPoint x="460" y="710" as="sourcePoint" />
            <mxPoint x="510" y="660" as="targetPoint" />
          </mxGeometry>
        </mxCell>
        <mxCell id="NnnLSMgLc5xRbMuPw9LD-64" value="" style="endArrow=none;html=1;rounded=0;entryX=0.631;entryY=1.005;entryDx=0;entryDy=0;entryPerimeter=0;exitX=0.5;exitY=0;exitDx=0;exitDy=0;" edge="1" parent="1" source="rUUEe8QkE9hzoTxWt3CS-90" target="rUUEe8QkE9hzoTxWt3CS-57">
          <mxGeometry width="50" height="50" relative="1" as="geometry">
            <mxPoint x="1385" y="650" as="sourcePoint" />
            <mxPoint x="1435" y="600" as="targetPoint" />
          </mxGeometry>
        </mxCell>
        <mxCell id="NnnLSMgLc5xRbMuPw9LD-65" value="" style="endArrow=none;html=1;rounded=0;entryX=1;entryY=1;entryDx=0;entryDy=0;exitX=0.5;exitY=0;exitDx=0;exitDy=0;" edge="1" parent="1" source="rUUEe8QkE9hzoTxWt3CS-113" target="rUUEe8QkE9hzoTxWt3CS-86">
          <mxGeometry width="50" height="50" relative="1" as="geometry">
            <mxPoint x="1395" y="660" as="sourcePoint" />
            <mxPoint x="1445" y="610" as="targetPoint" />
          </mxGeometry>
        </mxCell>
        <mxCell id="NnnLSMgLc5xRbMuPw9LD-66" value="" style="endArrow=none;html=1;rounded=0;entryX=0.328;entryY=0.971;entryDx=0;entryDy=0;entryPerimeter=0;exitX=0.5;exitY=0;exitDx=0;exitDy=0;" edge="1" parent="1" source="rUUEe8QkE9hzoTxWt3CS-85" target="rUUEe8QkE9hzoTxWt3CS-55">
          <mxGeometry width="50" height="50" relative="1" as="geometry">
            <mxPoint x="1405" y="670" as="sourcePoint" />
            <mxPoint x="1455" y="620" as="targetPoint" />
          </mxGeometry>
        </mxCell>
        <mxCell id="NnnLSMgLc5xRbMuPw9LD-67" value="" style="endArrow=none;html=1;rounded=0;entryX=0.082;entryY=0.81;entryDx=0;entryDy=0;entryPerimeter=0;exitX=0.5;exitY=0;exitDx=0;exitDy=0;" edge="1" parent="1" source="NnnLSMgLc5xRbMuPw9LD-21" target="rUUEe8QkE9hzoTxWt3CS-44">
          <mxGeometry width="50" height="50" relative="1" as="geometry">
            <mxPoint x="1500" y="410" as="sourcePoint" />
            <mxPoint x="1550" y="360" as="targetPoint" />
          </mxGeometry>
        </mxCell>
        <mxCell id="NnnLSMgLc5xRbMuPw9LD-68" value="" style="endArrow=none;html=1;rounded=0;entryX=0.761;entryY=0.929;entryDx=0;entryDy=0;entryPerimeter=0;exitX=0.5;exitY=0;exitDx=0;exitDy=0;" edge="1" parent="1" source="rUUEe8QkE9hzoTxWt3CS-79" target="rUUEe8QkE9hzoTxWt3CS-43">
          <mxGeometry width="50" height="50" relative="1" as="geometry">
            <mxPoint x="650" y="710" as="sourcePoint" />
            <mxPoint x="700" y="660" as="targetPoint" />
          </mxGeometry>
        </mxCell>
        <mxCell id="NnnLSMgLc5xRbMuPw9LD-69" value="" style="endArrow=none;html=1;rounded=0;entryX=0.396;entryY=1.013;entryDx=0;entryDy=0;entryPerimeter=0;exitX=0.5;exitY=0;exitDx=0;exitDy=0;" edge="1" parent="1" source="rUUEe8QkE9hzoTxWt3CS-80" target="rUUEe8QkE9hzoTxWt3CS-43">
          <mxGeometry width="50" height="50" relative="1" as="geometry">
            <mxPoint x="660" y="720" as="sourcePoint" />
            <mxPoint x="710" y="670" as="targetPoint" />
          </mxGeometry>
        </mxCell>
        <mxCell id="NnnLSMgLc5xRbMuPw9LD-70" value="" style="endArrow=none;html=1;rounded=0;entryX=0.362;entryY=1.005;entryDx=0;entryDy=0;entryPerimeter=0;exitX=0.5;exitY=0;exitDx=0;exitDy=0;" edge="1" parent="1" source="rUUEe8QkE9hzoTxWt3CS-64" target="rUUEe8QkE9hzoTxWt3CS-57">
          <mxGeometry width="50" height="50" relative="1" as="geometry">
            <mxPoint x="1385" y="650" as="sourcePoint" />
            <mxPoint x="1435" y="600" as="targetPoint" />
          </mxGeometry>
        </mxCell>
        <mxCell id="NnnLSMgLc5xRbMuPw9LD-71" value="" style="endArrow=none;html=1;rounded=0;entryX=0.5;entryY=1;entryDx=0;entryDy=0;exitX=0.5;exitY=0;exitDx=0;exitDy=0;" edge="1" parent="1" source="rUUEe8QkE9hzoTxWt3CS-112" target="rUUEe8QkE9hzoTxWt3CS-86">
          <mxGeometry width="50" height="50" relative="1" as="geometry">
            <mxPoint x="1395" y="660" as="sourcePoint" />
            <mxPoint x="1445" y="610" as="targetPoint" />
          </mxGeometry>
        </mxCell>
        <mxCell id="NnnLSMgLc5xRbMuPw9LD-72" value="" style="endArrow=none;html=1;rounded=0;entryX=0;entryY=1;entryDx=0;entryDy=0;exitX=0.5;exitY=0;exitDx=0;exitDy=0;" edge="1" parent="1" source="rUUEe8QkE9hzoTxWt3CS-99" target="rUUEe8QkE9hzoTxWt3CS-55">
          <mxGeometry width="50" height="50" relative="1" as="geometry">
            <mxPoint x="1820" y="435" as="sourcePoint" />
            <mxPoint x="1870" y="385" as="targetPoint" />
          </mxGeometry>
        </mxCell>
        <mxCell id="NnnLSMgLc5xRbMuPw9LD-73" value="" style="endArrow=none;html=1;rounded=0;entryX=0.752;entryY=0.946;entryDx=0;entryDy=0;entryPerimeter=0;exitX=0.5;exitY=0;exitDx=0;exitDy=0;" edge="1" parent="1" source="rUUEe8QkE9hzoTxWt3CS-86" target="rUUEe8QkE9hzoTxWt3CS-44">
          <mxGeometry width="50" height="50" relative="1" as="geometry">
            <mxPoint x="1415" y="680" as="sourcePoint" />
            <mxPoint x="1465" y="630" as="targetPoint" />
          </mxGeometry>
        </mxCell>
        <mxCell id="NnnLSMgLc5xRbMuPw9LD-74" value="" style="endArrow=none;html=1;rounded=0;entryX=0;entryY=1;entryDx=0;entryDy=0;exitX=0.5;exitY=0;exitDx=0;exitDy=0;" edge="1" parent="1" source="rUUEe8QkE9hzoTxWt3CS-114" target="rUUEe8QkE9hzoTxWt3CS-86">
          <mxGeometry width="50" height="50" relative="1" as="geometry">
            <mxPoint x="1395" y="660" as="sourcePoint" />
            <mxPoint x="1445" y="610" as="targetPoint" />
          </mxGeometry>
        </mxCell>
        <mxCell id="NnnLSMgLc5xRbMuPw9LD-75" value="" style="endArrow=none;html=1;rounded=0;entryX=0.94;entryY=0.708;entryDx=0;entryDy=0;entryPerimeter=0;exitX=0.5;exitY=0;exitDx=0;exitDy=0;" edge="1" parent="1" source="rUUEe8QkE9hzoTxWt3CS-98" target="rUUEe8QkE9hzoTxWt3CS-44">
          <mxGeometry width="50" height="50" relative="1" as="geometry">
            <mxPoint x="1405" y="670" as="sourcePoint" />
            <mxPoint x="1455" y="620" as="targetPoint" />
          </mxGeometry>
        </mxCell>
        <mxCell id="NnnLSMgLc5xRbMuPw9LD-76" value="" style="endArrow=none;html=1;rounded=0;entryX=0.5;entryY=1;entryDx=0;entryDy=0;exitX=0.5;exitY=0;exitDx=0;exitDy=0;" edge="1" parent="1" source="rUUEe8QkE9hzoTxWt3CS-87" target="rUUEe8QkE9hzoTxWt3CS-44">
          <mxGeometry width="50" height="50" relative="1" as="geometry">
            <mxPoint x="1415" y="680" as="sourcePoint" />
            <mxPoint x="1465" y="630" as="targetPoint" />
          </mxGeometry>
        </mxCell>
        <mxCell id="NnnLSMgLc5xRbMuPw9LD-77" value="" style="rounded=0;whiteSpace=wrap;html=1;" vertex="1" parent="1">
          <mxGeometry x="703.75" y="600" width="32.5" height="60" as="geometry" />
        </mxCell>
        <mxCell id="NnnLSMgLc5xRbMuPw9LD-78" value="" style="rounded=0;whiteSpace=wrap;html=1;" vertex="1" parent="1">
          <mxGeometry x="635" y="600" width="30" height="60" as="geometry" />
        </mxCell>
        <mxCell id="NnnLSMgLc5xRbMuPw9LD-79" value="" style="rounded=0;whiteSpace=wrap;html=1;" vertex="1" parent="1">
          <mxGeometry x="773.75" y="600" width="32.5" height="60" as="geometry" />
        </mxCell>
        <mxCell id="NnnLSMgLc5xRbMuPw9LD-80" value="" style="rounded=0;whiteSpace=wrap;html=1;" vertex="1" parent="1">
          <mxGeometry x="475" y="600" width="30" height="60" as="geometry" />
        </mxCell>
        <mxCell id="NnnLSMgLc5xRbMuPw9LD-81" value="" style="rounded=0;whiteSpace=wrap;html=1;" vertex="1" parent="1">
          <mxGeometry x="415" y="600" width="30" height="60" as="geometry" />
        </mxCell>
        <mxCell id="NnnLSMgLc5xRbMuPw9LD-82" value="" style="rounded=0;whiteSpace=wrap;html=1;" vertex="1" parent="1">
          <mxGeometry x="355" y="600" width="30" height="60" as="geometry" />
        </mxCell>
        <mxCell id="NnnLSMgLc5xRbMuPw9LD-83" value="" style="rounded=0;whiteSpace=wrap;html=1;" vertex="1" parent="1">
          <mxGeometry x="195" y="600" width="30" height="60" as="geometry" />
        </mxCell>
        <mxCell id="NnnLSMgLc5xRbMuPw9LD-84" value="" style="rounded=0;whiteSpace=wrap;html=1;" vertex="1" parent="1">
          <mxGeometry x="125" y="600" width="30" height="60" as="geometry" />
        </mxCell>
        <mxCell id="NnnLSMgLc5xRbMuPw9LD-85" value="" style="rounded=0;whiteSpace=wrap;html=1;" vertex="1" parent="1">
          <mxGeometry x="55" y="600" width="30" height="60" as="geometry" />
        </mxCell>
        <mxCell id="NnnLSMgLc5xRbMuPw9LD-87" value="" style="rounded=0;whiteSpace=wrap;html=1;" vertex="1" parent="1">
          <mxGeometry x="1345" y="600" width="30" height="60" as="geometry" />
        </mxCell>
        <mxCell id="NnnLSMgLc5xRbMuPw9LD-88" value="" style="rounded=0;whiteSpace=wrap;html=1;" vertex="1" parent="1">
          <mxGeometry x="1405" y="600" width="30" height="60" as="geometry" />
        </mxCell>
        <mxCell id="NnnLSMgLc5xRbMuPw9LD-89" value="" style="rounded=0;whiteSpace=wrap;html=1;" vertex="1" parent="1">
          <mxGeometry x="1015" y="600" width="30" height="60" as="geometry" />
        </mxCell>
        <mxCell id="NnnLSMgLc5xRbMuPw9LD-90" value="" style="rounded=0;whiteSpace=wrap;html=1;" vertex="1" parent="1">
          <mxGeometry x="1285" y="600" width="30" height="60" as="geometry" />
        </mxCell>
        <mxCell id="NnnLSMgLc5xRbMuPw9LD-91" value="" style="rounded=0;whiteSpace=wrap;html=1;" vertex="1" parent="1">
          <mxGeometry x="1085" y="600" width="30" height="60" as="geometry" />
        </mxCell>
        <mxCell id="NnnLSMgLc5xRbMuPw9LD-92" value="" style="rounded=0;whiteSpace=wrap;html=1;" vertex="1" parent="1">
          <mxGeometry x="1855" y="620" width="30" height="60" as="geometry" />
        </mxCell>
        <mxCell id="NnnLSMgLc5xRbMuPw9LD-93" value="" style="rounded=0;whiteSpace=wrap;html=1;" vertex="1" parent="1">
          <mxGeometry x="1153" y="600" width="30" height="60" as="geometry" />
        </mxCell>
        <mxCell id="NnnLSMgLc5xRbMuPw9LD-94" value="" style="rounded=0;whiteSpace=wrap;html=1;" vertex="1" parent="1">
          <mxGeometry x="1625" y="620" width="30" height="60" as="geometry" />
        </mxCell>
        <mxCell id="NnnLSMgLc5xRbMuPw9LD-95" value="" style="rounded=0;whiteSpace=wrap;html=1;" vertex="1" parent="1">
          <mxGeometry x="1565" y="620" width="30" height="60" as="geometry" />
        </mxCell>
        <mxCell id="NnnLSMgLc5xRbMuPw9LD-96" value="" style="rounded=0;whiteSpace=wrap;html=1;" vertex="1" parent="1">
          <mxGeometry x="945" y="600" width="30" height="60" as="geometry" />
        </mxCell>
        <mxCell id="NnnLSMgLc5xRbMuPw9LD-99" value="" style="rounded=0;whiteSpace=wrap;html=1;" vertex="1" parent="1">
          <mxGeometry x="2115" y="620" width="30" height="60" as="geometry" />
        </mxCell>
        <mxCell id="NnnLSMgLc5xRbMuPw9LD-100" value="" style="rounded=0;whiteSpace=wrap;html=1;" vertex="1" parent="1">
          <mxGeometry x="1925" y="620" width="30" height="60" as="geometry" />
        </mxCell>
        <mxCell id="NnnLSMgLc5xRbMuPw9LD-101" value="" style="endArrow=none;html=1;rounded=0;entryX=0.5;entryY=1;entryDx=0;entryDy=0;exitX=0.5;exitY=0;exitDx=0;exitDy=0;" edge="1" parent="1" source="NnnLSMgLc5xRbMuPw9LD-83" target="rUUEe8QkE9hzoTxWt3CS-68">
          <mxGeometry width="50" height="50" relative="1" as="geometry">
            <mxPoint x="204" y="600" as="sourcePoint" />
            <mxPoint x="225" y="524" as="targetPoint" />
          </mxGeometry>
        </mxCell>
        <mxCell id="NnnLSMgLc5xRbMuPw9LD-102" value="" style="endArrow=none;html=1;rounded=0;entryX=0.5;entryY=1;entryDx=0;entryDy=0;exitX=0.5;exitY=0;exitDx=0;exitDy=0;" edge="1" parent="1" target="NnnLSMgLc5xRbMuPw9LD-35">
          <mxGeometry width="50" height="50" relative="1" as="geometry">
            <mxPoint x="140" y="600" as="sourcePoint" />
            <mxPoint x="161" y="524" as="targetPoint" />
          </mxGeometry>
        </mxCell>
        <mxCell id="NnnLSMgLc5xRbMuPw9LD-103" value="" style="endArrow=none;html=1;rounded=0;entryX=0.5;entryY=1;entryDx=0;entryDy=0;exitX=0.5;exitY=0;exitDx=0;exitDy=0;" edge="1" parent="1" target="rUUEe8QkE9hzoTxWt3CS-66">
          <mxGeometry width="50" height="50" relative="1" as="geometry">
            <mxPoint x="70" y="600" as="sourcePoint" />
            <mxPoint x="91" y="524" as="targetPoint" />
          </mxGeometry>
        </mxCell>
        <mxCell id="NnnLSMgLc5xRbMuPw9LD-104" value="" style="endArrow=none;html=1;rounded=0;entryX=0.5;entryY=1;entryDx=0;entryDy=0;exitX=0.5;exitY=0;exitDx=0;exitDy=0;" edge="1" parent="1">
          <mxGeometry width="50" height="50" relative="1" as="geometry">
            <mxPoint x="719.52" y="600" as="sourcePoint" />
            <mxPoint x="719.52" y="480" as="targetPoint" />
          </mxGeometry>
        </mxCell>
        <mxCell id="NnnLSMgLc5xRbMuPw9LD-105" value="" style="endArrow=none;html=1;rounded=0;entryX=0.5;entryY=1;entryDx=0;entryDy=0;exitX=0.5;exitY=0;exitDx=0;exitDy=0;" edge="1" parent="1">
          <mxGeometry width="50" height="50" relative="1" as="geometry">
            <mxPoint x="649.52" y="600" as="sourcePoint" />
            <mxPoint x="649.52" y="480" as="targetPoint" />
          </mxGeometry>
        </mxCell>
        <mxCell id="NnnLSMgLc5xRbMuPw9LD-106" value="" style="endArrow=none;html=1;rounded=0;entryX=0.5;entryY=1;entryDx=0;entryDy=0;exitX=0.5;exitY=0;exitDx=0;exitDy=0;" edge="1" parent="1">
          <mxGeometry width="50" height="50" relative="1" as="geometry">
            <mxPoint x="489.52" y="600" as="sourcePoint" />
            <mxPoint x="489.52" y="480" as="targetPoint" />
          </mxGeometry>
        </mxCell>
        <mxCell id="NnnLSMgLc5xRbMuPw9LD-107" value="" style="endArrow=none;html=1;rounded=0;exitX=0.5;exitY=0;exitDx=0;exitDy=0;" edge="1" parent="1">
          <mxGeometry width="50" height="50" relative="1" as="geometry">
            <mxPoint x="429.52" y="600" as="sourcePoint" />
            <mxPoint x="430" y="490" as="targetPoint" />
          </mxGeometry>
        </mxCell>
        <mxCell id="NnnLSMgLc5xRbMuPw9LD-108" value="" style="endArrow=none;html=1;rounded=0;entryX=0.5;entryY=1;entryDx=0;entryDy=0;exitX=0.5;exitY=0;exitDx=0;exitDy=0;" edge="1" parent="1">
          <mxGeometry width="50" height="50" relative="1" as="geometry">
            <mxPoint x="369.52" y="600" as="sourcePoint" />
            <mxPoint x="369.52" y="480" as="targetPoint" />
          </mxGeometry>
        </mxCell>
        <mxCell id="NnnLSMgLc5xRbMuPw9LD-109" value="" style="endArrow=none;html=1;rounded=0;entryX=0.5;entryY=1;entryDx=0;entryDy=0;exitX=0.5;exitY=0;exitDx=0;exitDy=0;" edge="1" parent="1">
          <mxGeometry width="50" height="50" relative="1" as="geometry">
            <mxPoint x="1170" y="600" as="sourcePoint" />
            <mxPoint x="1170" y="480" as="targetPoint" />
          </mxGeometry>
        </mxCell>
        <mxCell id="NnnLSMgLc5xRbMuPw9LD-110" value="" style="endArrow=none;html=1;rounded=0;entryX=0.5;entryY=1;entryDx=0;entryDy=0;exitX=0.5;exitY=0;exitDx=0;exitDy=0;" edge="1" parent="1">
          <mxGeometry width="50" height="50" relative="1" as="geometry">
            <mxPoint x="1099.52" y="600" as="sourcePoint" />
            <mxPoint x="1099.52" y="480" as="targetPoint" />
          </mxGeometry>
        </mxCell>
        <mxCell id="NnnLSMgLc5xRbMuPw9LD-111" value="" style="endArrow=none;html=1;rounded=0;entryX=0.5;entryY=1;entryDx=0;entryDy=0;exitX=0.5;exitY=0;exitDx=0;exitDy=0;" edge="1" parent="1">
          <mxGeometry width="50" height="50" relative="1" as="geometry">
            <mxPoint x="1029.52" y="600" as="sourcePoint" />
            <mxPoint x="1029.52" y="480" as="targetPoint" />
          </mxGeometry>
        </mxCell>
        <mxCell id="NnnLSMgLc5xRbMuPw9LD-112" value="" style="endArrow=none;html=1;rounded=0;entryX=0.5;entryY=1;entryDx=0;entryDy=0;exitX=0.5;exitY=0;exitDx=0;exitDy=0;" edge="1" parent="1">
          <mxGeometry width="50" height="50" relative="1" as="geometry">
            <mxPoint x="959.52" y="600" as="sourcePoint" />
            <mxPoint x="959.52" y="480" as="targetPoint" />
          </mxGeometry>
        </mxCell>
        <mxCell id="NnnLSMgLc5xRbMuPw9LD-113" value="" style="endArrow=none;html=1;rounded=0;entryX=0.5;entryY=1;entryDx=0;entryDy=0;exitX=0.5;exitY=0;exitDx=0;exitDy=0;" edge="1" parent="1">
          <mxGeometry width="50" height="50" relative="1" as="geometry">
            <mxPoint x="789.52" y="600" as="sourcePoint" />
            <mxPoint x="789.52" y="480" as="targetPoint" />
          </mxGeometry>
        </mxCell>
        <mxCell id="NnnLSMgLc5xRbMuPw9LD-115" value="" style="endArrow=none;html=1;rounded=0;entryX=0.5;entryY=1;entryDx=0;entryDy=0;exitX=0.5;exitY=0;exitDx=0;exitDy=0;" edge="1" parent="1" source="NnnLSMgLc5xRbMuPw9LD-95">
          <mxGeometry width="50" height="50" relative="1" as="geometry">
            <mxPoint x="1579.05" y="600" as="sourcePoint" />
            <mxPoint x="1579.05" y="480" as="targetPoint" />
          </mxGeometry>
        </mxCell>
        <mxCell id="NnnLSMgLc5xRbMuPw9LD-116" value="" style="endArrow=none;html=1;rounded=0;entryX=0.5;entryY=1;entryDx=0;entryDy=0;exitX=0.5;exitY=0;exitDx=0;exitDy=0;" edge="1" parent="1">
          <mxGeometry width="50" height="50" relative="1" as="geometry">
            <mxPoint x="1419.52" y="600" as="sourcePoint" />
            <mxPoint x="1419.52" y="480" as="targetPoint" />
          </mxGeometry>
        </mxCell>
        <mxCell id="NnnLSMgLc5xRbMuPw9LD-117" value="" style="endArrow=none;html=1;rounded=0;entryX=0.5;entryY=1;entryDx=0;entryDy=0;exitX=0.5;exitY=0;exitDx=0;exitDy=0;" edge="1" parent="1">
          <mxGeometry width="50" height="50" relative="1" as="geometry">
            <mxPoint x="1359.52" y="600" as="sourcePoint" />
            <mxPoint x="1359.52" y="480" as="targetPoint" />
          </mxGeometry>
        </mxCell>
        <mxCell id="NnnLSMgLc5xRbMuPw9LD-118" value="" style="endArrow=none;html=1;rounded=0;entryX=0.5;entryY=1;entryDx=0;entryDy=0;exitX=0.5;exitY=0;exitDx=0;exitDy=0;" edge="1" parent="1">
          <mxGeometry width="50" height="50" relative="1" as="geometry">
            <mxPoint x="1299.52" y="600" as="sourcePoint" />
            <mxPoint x="1299.52" y="480" as="targetPoint" />
          </mxGeometry>
        </mxCell>
        <mxCell id="NnnLSMgLc5xRbMuPw9LD-119" value="" style="endArrow=none;html=1;rounded=0;entryX=0.5;entryY=1;entryDx=0;entryDy=0;exitX=0.5;exitY=0;exitDx=0;exitDy=0;" edge="1" parent="1">
          <mxGeometry width="50" height="50" relative="1" as="geometry">
            <mxPoint x="1640.95" y="620" as="sourcePoint" />
            <mxPoint x="1640" y="480" as="targetPoint" />
          </mxGeometry>
        </mxCell>
        <mxCell id="NnnLSMgLc5xRbMuPw9LD-120" value="" style="endArrow=none;html=1;rounded=0;entryX=0.5;entryY=1;entryDx=0;entryDy=0;exitX=0.5;exitY=0;exitDx=0;exitDy=0;" edge="1" parent="1">
          <mxGeometry width="50" height="50" relative="1" as="geometry">
            <mxPoint x="2130.4700000000003" y="620" as="sourcePoint" />
            <mxPoint x="2129.52" y="480" as="targetPoint" />
          </mxGeometry>
        </mxCell>
        <mxCell id="NnnLSMgLc5xRbMuPw9LD-121" value="" style="endArrow=none;html=1;rounded=0;entryX=0.5;entryY=1;entryDx=0;entryDy=0;exitX=0.5;exitY=0;exitDx=0;exitDy=0;" edge="1" parent="1">
          <mxGeometry width="50" height="50" relative="1" as="geometry">
            <mxPoint x="1940.47" y="620" as="sourcePoint" />
            <mxPoint x="1939.52" y="480" as="targetPoint" />
          </mxGeometry>
        </mxCell>
        <mxCell id="NnnLSMgLc5xRbMuPw9LD-122" value="" style="endArrow=none;html=1;rounded=0;entryX=0.5;entryY=1;entryDx=0;entryDy=0;exitX=0.5;exitY=0;exitDx=0;exitDy=0;" edge="1" parent="1">
          <mxGeometry width="50" height="50" relative="1" as="geometry">
            <mxPoint x="1870.47" y="620" as="sourcePoint" />
            <mxPoint x="1869.52" y="480" as="targetPoint" />
          </mxGeometry>
        </mxCell>
      </root>
    </mxGraphModel>
  </diagram>
</mxfile>
